{"title":"RWBY.S03E01.1080p.BluRay.x264-W4F","uid":14666924,"size":771093163,"categoryP":"video","categoryS":"hd___tv_shows","magnet":"?xt=urn:btih:1134890c13d44e1af6f57421b4ba435d067ce205&amp;dn=RWBY.S03E01.1080p.BluRay.x264-W4F&amp;tr=udp%3A%2F%2Ftracker.leechers-paradise.org%3A6969&amp;tr=udp%3A%2F%2Fzer0day.ch%3A1337&amp;tr=udp%3A%2F%2Fopen.demonii.com%3A1337&amp;tr=udp%3A%2F%2Ftracker.coppersurfer.tk%3A6969&amp;tr=udp%3A%2F%2Fexodus.desync.com%3A6969","seeders":0,"leechers":0,"uploader":"orangebirds","files":2,"time":1463819504,"description":"RWBY.S03E01.1080p.BluRay.x264-W4F\r\n\r\nGeneral\r\nUnique ID                   : 179330550180310431371655271442390978130 (0x86E9CEC26264A671A5A95F52AE780E52)\r\nComplete name               : RWBY.S03E01.1080p.BluRay.x264-W4F.mkv\r\nFormat                      : Matroska\r\nFormat version              : Version 4 / Version 2\r\nFile size                   : 735 MiB\r\nDuration                    : 16mn 47s\r\nOverall bit rate            : 6 123 Kbps\r\nEncoded date                : UTC 2016-05-05 13:34:31\r\nWriting application         : mkvmerge v9.1.0 ('Little Earthquakes') 64bit\r\nWriting library             : libebml v1.3.3 + libmatroska v1.4.4\r\n\r\nVideo\r\nID                          : 1\r\nFormat                      : AVC\r\nFormat/Info                 : Advanced Video Codec\r\nFormat profile              :   \r\nFormat settings, CABAC      : Yes\r\nFormat settings, ReFrames   : 4 frames\r\nCodec ID                    : V_MPEG4/ISO/AVC\r\nDuration                    : 16mn 47s\r\nBit rate                    : 5 740 Kbps\r\nWidth                       : 1 920 pixels\r\nHeight                      : 1 080 pixels\r\nDisplay aspect ratio        : 16:9\r\nFrame rate mode             : Constant\r\nFrame rate                  : 24.000 fps\r\nColor space                 : YUV\r\nChroma subsampling          : 4:2:0\r\nBit depth                   : 8 bits\r\nScan type                   : Progressive\r\nBits/(Pixel*Frame)          : 0.115\r\nStream size                 : 689 MiB (94%)\r\nWriting library             : x264 core 148 r2665 a01e339\r\nEncoding settings           : cabac=1 / ref=4 / deblock=1:1:1 / analyse=0x3:0x113 / me=umh / subme=8 / psy=1 / psy_rd=0.40:0.00 / mixed_ref=1 / me_range=24 / chroma_me=1 / trellis=1 / 8x8dct=1 / cqm=0 / deadzone=21,11 / fast_pskip=1 / chroma_qp_offset=-2 / threads=12 / lookahead_threads=3 / sliced_threads=0 / nr=0 / decimate=1 / interlaced=0 / bluray_compat=0 / constrained_intra=0 / bframes=5 / b_pyramid=2 / b_adapt=2 / b_bias=0 / direct=3 / weightb=1 / open_gop=0 / weightp=2 / keyint=240 / keyint_min=24 / scenecut=40 / intra_refresh=0 / rc_lookahead=50 / rc=2pass / mbtree=1 / bitrate=5740 / ratetol=1.0 / qcomp=0.60 / qpmin=0 / qpmax=69 / qpstep=4 / cplxblur=20.0 / qblur=0.5 / vbv_maxrate=62500 / vbv_bufsize=78125 / nal_hrd=none / filler=0 / ip_ratio=1.40 / aq=1:0.60\r\nDefault                     : Yes\r\nForced                      : No\r\n\r\nAudio\r\nID                          : 2\r\nFormat                      : AC-3\r\nFormat/Info                 : Audio Coding 3\r\nMode extension              : CM (complete main)\r\nFormat settings, Endianness : Big\r\nCodec ID                    : A_AC3\r\nDuration                    : 16mn 47s\r\nBit rate mode               : Constant\r\nBit rate                    : 384 Kbps\r\nChannel(s)                  : 6 channels\r\nChannel positions           : Front: L C R, Side: L R, LFE\r\nSampling rate               : 48.0 KHz\r\nFrame rate                  : 31.250 fps (1536 spf)\r\nCompression mode            : Lossy\r\nStream size                 : 46.1 MiB (6%)\r\nLanguage                    : English\r\nDefault                     : Yes\r\nForced                      : No\r\n\r\nMenu\r\n00:00:00.000                : en:00:00:00.000\r\n00:15:24.667                : en:00:15:24.667","torrent":{"xt":"urn:btih:1134890c13d44e1af6f57421b4ba435d067ce205","amp;dn":"RWBY.S03E01.1080p.BluRay.x264-W4F","amp;tr":["udp%3A%2F%2Ftracker.leechers-paradise.org%3A6969","udp%3A%2F%2Fzer0day.ch%3A1337","udp%3A%2F%2Fopen.demonii.com%3A1337","udp%3A%2F%2Ftracker.coppersurfer.tk%3A6969","udp%3A%2F%2Fexodus.desync.com%3A6969"],"infoHash":"1134890c13d44e1af6f57421b4ba435d067ce205","infoHashBuffer":{"type":"Buffer","data":[17,52,137,12,19,212,78,26,246,245,116,33,180,186,67,93,6,124,226,5]},"announce":[],"urlList":[]}}